FFmpeg version SVN-r25716, Copyright (c) 2000-2010 the FFmpeg developers  built on Nov 10 2010 12:23:18 with gcc 4.1.2 20080704 (Red Hat 4.1.2-48)  configuration: --enable-libmp3lame --enable-shared --disable-mmx --arch=x86_64  libavutil     50.33. 0 / 50.33. 0  libavcore      0.12. 1 /  0.12. 1  libavcodec    52.94. 4 / 52.94. 4  libavformat   52.84. 0 / 52.84. 0  libavdevice   52. 2. 2 / 52. 2. 2  libavfilter    1.59. 0 /  1.59. 0  libswscale     0.12. 0 /  0.12. 0Input #0, avi, from '/RAID10/data/converted_video_files/9691.avi':  Duration: 00:00:59.64, start: 0.000000, bitrate: 1833 kb/s    Stream #0.0: Video: indeo5, yuv410p, 320x240, 25 fps, 25 tbr, 25 tbn, 25 tbc    Stream #0.1: Audio: pcm_s16le, 44100 Hz, 2 channels, s16, 1411 kb/s[buffer @ 0x3fbdd70] w:320 h:240 pixfmt:yuv410p[ffsink @ 0x3fbdfe0] auto-inserting filter 'auto-inserted scaler 0' between the filter 'src' and the filter 'out'[scale @ 0x3fbe300] w:320 h:240 fmt:yuv410p -> w:320 h:240 fmt:yuv420p flags:0x4Output #0, flv, to '/RAID10/data/converted_video_files/9691.flv':  Metadata:    encoder         : Lavf52.84.0    Stream #0.0: Video: flv, yuv420p, 320x240, q=2-31, 600 kb/s, 1k tbn, 24 tbc    Stream #0.1: Audio: libmp3lame, 22050 Hz, 2 channels, s16, 96 kb/sStream mapping:  Stream #0.0 -> #0.0  Stream #0.1 -> #0.1Press [q] to stop encodingframe=  115 fps=  0 q=2.0 size=     327kB time=3.94 bitrate= 678.7kbits/s dup=0 drop=5    frame=  236 fps=234 q=2.0 size=     673kB time=8.93 bitrate= 617.0kbits/s dup=0 drop=10    frame=  359 fps=238 q=2.0 size=    1032kB time=13.92 bitrate= 607.2kbits/s dup=0 drop=15    frame=  480 fps=239 q=2.0 size=    1393kB time=19.20 bitrate= 594.4kbits/s dup=0 drop=20    frame=  600 fps=239 q=2.0 size=    1767kB time=24.76 bitrate= 584.4kbits/s dup=0 drop=25    frame=  723 fps=240 q=2.0 size=    2109kB time=29.94 bitrate= 577.2kbits/s dup=0 drop=30    frame=  843 fps=240 q=2.0 size=    2457kB time=34.93 bitrate= 576.4kbits/s dup=0 drop=35    frame=  960 fps=239 q=2.0 size=    2817kB time=39.86 bitrate= 578.9kbits/s dup=0 drop=40    frame= 1080 fps=239 q=2.0 size=    3160kB time=44.64 bitrate= 579.8kbits/s dup=0 drop=45    frame= 1200 fps=239 q=2.0 size=    3508kB time=49.84 bitrate= 576.6kbits/s dup=0 drop=50    frame= 1320 fps=239 q=2.0 size=    3841kB time=54.65 bitrate= 575.8kbits/s dup=0 drop=55    frame= 1432 fps=239 q=2.0 Lsize=    4192kB time=59.67 bitrate= 575.5kbits/s dup=0 drop=59    video:3433kB audio:700kB global headers:0kB muxing overhead 1.413078%